<mxfile host="app.diagrams.net" agent="Mozilla/5.0 (Windows NT 10.0; Win64; x64) AppleWebKit/537.36 (KHTML, like Gecko) Chrome/130.0.0.0 Safari/537.36" version="24.8.4">
  <diagram name="Page-1" id="O68f2Q7Yjam5VTw899kQ">
    <mxGraphModel dx="1173" dy="691" grid="1" gridSize="10" guides="1" tooltips="1" connect="1" arrows="1" fold="1" page="1" pageScale="1" pageWidth="850" pageHeight="1100" math="0" shadow="0">
      <root>
        <mxCell id="0" />
        <mxCell id="1" parent="0" />
        <mxCell id="OuCYZ1kZ1UgPZIDO1jOh-1" value="Customer" style="shape=umlActor;verticalLabelPosition=bottom;verticalAlign=top;html=1;outlineConnect=0;" parent="1" vertex="1">
          <mxGeometry x="80" y="70" width="20" height="40" as="geometry" />
        </mxCell>
        <mxCell id="OuCYZ1kZ1UgPZIDO1jOh-2" value="&lt;div&gt;&lt;span style=&quot;font-size: 11px;&quot;&gt;&amp;lt;&amp;lt; view Layer &amp;gt;&amp;gt;&lt;/span&gt;&lt;/div&gt;&lt;span style=&quot;font-size: 11px;&quot;&gt;Booking Confirmation&lt;/span&gt;" style="rounded=0;whiteSpace=wrap;html=1;" parent="1" vertex="1">
          <mxGeometry x="172.5" y="50" width="125" height="30" as="geometry" />
        </mxCell>
        <mxCell id="OuCYZ1kZ1UgPZIDO1jOh-3" value="&lt;font style=&quot;font-size: 11px;&quot;&gt;&amp;lt;&amp;lt; controller &amp;gt;&amp;gt;&lt;/font&gt;&lt;div&gt;&lt;font style=&quot;font-size: 11px;&quot;&gt;BookingConfirmationHandler&lt;/font&gt;&lt;/div&gt;" style="rounded=0;whiteSpace=wrap;html=1;" parent="1" vertex="1">
          <mxGeometry x="310" y="65" width="160" height="30" as="geometry" />
        </mxCell>
        <mxCell id="OuCYZ1kZ1UgPZIDO1jOh-8" value="" style="endArrow=none;dashed=1;html=1;dashPattern=1 3;strokeWidth=2;rounded=0;entryX=0.5;entryY=1;entryDx=0;entryDy=0;" parent="1" edge="1">
          <mxGeometry width="50" height="50" relative="1" as="geometry">
            <mxPoint x="80" y="900" as="sourcePoint" />
            <mxPoint x="84.5" y="130" as="targetPoint" />
          </mxGeometry>
        </mxCell>
        <mxCell id="OuCYZ1kZ1UgPZIDO1jOh-12" value="" style="endArrow=classic;html=1;rounded=0;entryX=0;entryY=0.1;entryDx=0;entryDy=0;entryPerimeter=0;" parent="1" edge="1">
          <mxGeometry width="50" height="50" relative="1" as="geometry">
            <mxPoint x="244" y="220" as="sourcePoint" />
            <mxPoint x="394" y="219.99999999999994" as="targetPoint" />
          </mxGeometry>
        </mxCell>
        <mxCell id="OuCYZ1kZ1UgPZIDO1jOh-10" value="" style="endArrow=classic;html=1;rounded=0;" parent="1" edge="1">
          <mxGeometry width="50" height="50" relative="1" as="geometry">
            <mxPoint x="85" y="193.64999999999998" as="sourcePoint" />
            <mxPoint x="230" y="194.36" as="targetPoint" />
          </mxGeometry>
        </mxCell>
        <mxCell id="sbfKvWTtOLKOCPMKF29I-3" value="&lt;font style=&quot;font-size: 11px;&quot;&gt;Customer&lt;/font&gt;" style="rounded=0;whiteSpace=wrap;html=1;" parent="1" vertex="1">
          <mxGeometry x="690" y="126" width="70" height="24" as="geometry" />
        </mxCell>
        <mxCell id="sbfKvWTtOLKOCPMKF29I-4" value="&lt;font style=&quot;font-size: 11px;&quot;&gt;:person&lt;/font&gt;" style="rounded=0;whiteSpace=wrap;html=1;" parent="1" vertex="1">
          <mxGeometry x="490" y="95" width="70" height="24" as="geometry" />
        </mxCell>
        <mxCell id="sbfKvWTtOLKOCPMKF29I-6" value="&lt;font style=&quot;font-size: 11px;&quot;&gt;:personDA&lt;/font&gt;" style="rounded=0;whiteSpace=wrap;html=1;" parent="1" vertex="1">
          <mxGeometry x="580" y="65" width="70" height="24" as="geometry" />
        </mxCell>
        <mxCell id="sbfKvWTtOLKOCPMKF29I-7" value="&lt;font style=&quot;font-size: 11px;&quot;&gt;:ManagerDA&lt;/font&gt;" style="rounded=0;whiteSpace=wrap;html=1;" parent="1" vertex="1">
          <mxGeometry x="780" y="86" width="70" height="24" as="geometry" />
        </mxCell>
        <mxCell id="sbfKvWTtOLKOCPMKF29I-9" value="" style="endArrow=none;dashed=1;html=1;rounded=0;" parent="1" source="sbfKvWTtOLKOCPMKF29I-44" edge="1">
          <mxGeometry width="50" height="50" relative="1" as="geometry">
            <mxPoint x="530" y="490" as="sourcePoint" />
            <mxPoint x="530" y="119" as="targetPoint" />
          </mxGeometry>
        </mxCell>
        <mxCell id="sbfKvWTtOLKOCPMKF29I-12" value="" style="endArrow=none;dashed=1;html=1;rounded=0;" parent="1" edge="1">
          <mxGeometry width="50" height="50" relative="1" as="geometry">
            <mxPoint x="618" y="320" as="sourcePoint" />
            <mxPoint x="617.69" y="89" as="targetPoint" />
          </mxGeometry>
        </mxCell>
        <mxCell id="sbfKvWTtOLKOCPMKF29I-13" value="" style="endArrow=classic;html=1;rounded=0;" parent="1" edge="1">
          <mxGeometry width="50" height="50" relative="1" as="geometry">
            <mxPoint x="533" y="268" as="sourcePoint" />
            <mxPoint x="613" y="268" as="targetPoint" />
          </mxGeometry>
        </mxCell>
        <mxCell id="sbfKvWTtOLKOCPMKF29I-15" value="" style="endArrow=none;dashed=1;html=1;rounded=0;exitX=1;exitY=0.5;exitDx=0;exitDy=0;" parent="1" edge="1">
          <mxGeometry width="50" height="50" relative="1" as="geometry">
            <mxPoint x="720" y="301" as="sourcePoint" />
            <mxPoint x="721" y="150" as="targetPoint" />
          </mxGeometry>
        </mxCell>
        <mxCell id="sbfKvWTtOLKOCPMKF29I-16" value="&lt;font style=&quot;font-size: 11px;&quot;&gt;booking&lt;/font&gt;" style="rounded=0;whiteSpace=wrap;html=1;" parent="1" vertex="1">
          <mxGeometry x="870" y="132" width="70" height="24" as="geometry" />
        </mxCell>
        <mxCell id="sbfKvWTtOLKOCPMKF29I-17" value="&lt;font style=&quot;font-size: 11px;&quot;&gt;:BookingDA&lt;/font&gt;" style="rounded=0;whiteSpace=wrap;html=1;" parent="1" vertex="1">
          <mxGeometry x="980" y="110" width="70" height="24" as="geometry" />
        </mxCell>
        <mxCell id="sbfKvWTtOLKOCPMKF29I-18" value="" style="endArrow=none;dashed=1;html=1;rounded=0;" parent="1" source="sbfKvWTtOLKOCPMKF29I-36" edge="1">
          <mxGeometry width="50" height="50" relative="1" as="geometry">
            <mxPoint x="394.69" y="466" as="sourcePoint" />
            <mxPoint x="394.69" y="95" as="targetPoint" />
          </mxGeometry>
        </mxCell>
        <mxCell id="sbfKvWTtOLKOCPMKF29I-20" value="" style="endArrow=classic;html=1;rounded=0;" parent="1" edge="1">
          <mxGeometry width="50" height="50" relative="1" as="geometry">
            <mxPoint x="540" y="321.42" as="sourcePoint" />
            <mxPoint x="710" y="320.92" as="targetPoint" />
          </mxGeometry>
        </mxCell>
        <mxCell id="sbfKvWTtOLKOCPMKF29I-21" value="" style="endArrow=none;dashed=1;html=1;rounded=0;" parent="1" edge="1">
          <mxGeometry width="50" height="50" relative="1" as="geometry">
            <mxPoint x="820" y="320" as="sourcePoint" />
            <mxPoint x="820" y="110" as="targetPoint" />
          </mxGeometry>
        </mxCell>
        <mxCell id="sbfKvWTtOLKOCPMKF29I-24" value="" style="endArrow=none;dashed=1;html=1;rounded=0;" parent="1" source="OuCYZ1kZ1UgPZIDO1jOh-13" edge="1">
          <mxGeometry width="50" height="50" relative="1" as="geometry">
            <mxPoint x="234.57" y="457" as="sourcePoint" />
            <mxPoint x="234.57" y="86" as="targetPoint" />
          </mxGeometry>
        </mxCell>
        <mxCell id="sbfKvWTtOLKOCPMKF29I-26" value="" style="endArrow=none;dashed=1;html=1;rounded=0;" parent="1" target="OuCYZ1kZ1UgPZIDO1jOh-13" edge="1">
          <mxGeometry width="50" height="50" relative="1" as="geometry">
            <mxPoint x="235" y="930" as="sourcePoint" />
            <mxPoint x="234.57" y="86" as="targetPoint" />
          </mxGeometry>
        </mxCell>
        <mxCell id="OuCYZ1kZ1UgPZIDO1jOh-13" value="" style="rounded=0;whiteSpace=wrap;html=1;" parent="1" vertex="1">
          <mxGeometry x="230" y="167.5" width="10" height="392.5" as="geometry" />
        </mxCell>
        <mxCell id="sbfKvWTtOLKOCPMKF29I-32" value="" style="endArrow=classic;html=1;rounded=0;" parent="1" edge="1">
          <mxGeometry width="50" height="50" relative="1" as="geometry">
            <mxPoint x="724" y="374.31" as="sourcePoint" />
            <mxPoint x="894" y="374.31" as="targetPoint" />
          </mxGeometry>
        </mxCell>
        <mxCell id="sbfKvWTtOLKOCPMKF29I-33" value="" style="endArrow=none;dashed=1;html=1;rounded=0;exitX=0.6;exitY=0.087;exitDx=0;exitDy=0;exitPerimeter=0;" parent="1" edge="1" source="sbfKvWTtOLKOCPMKF29I-55">
          <mxGeometry width="50" height="50" relative="1" as="geometry">
            <mxPoint x="906.7969924812032" y="319" as="sourcePoint" />
            <mxPoint x="906" y="160" as="targetPoint" />
          </mxGeometry>
        </mxCell>
        <mxCell id="sbfKvWTtOLKOCPMKF29I-37" value="" style="endArrow=none;dashed=1;html=1;rounded=0;" parent="1" target="sbfKvWTtOLKOCPMKF29I-36" edge="1">
          <mxGeometry width="50" height="50" relative="1" as="geometry">
            <mxPoint x="395" y="903.5294117647059" as="sourcePoint" />
            <mxPoint x="394.69" y="95" as="targetPoint" />
          </mxGeometry>
        </mxCell>
        <mxCell id="sbfKvWTtOLKOCPMKF29I-36" value="" style="rounded=0;whiteSpace=wrap;html=1;" parent="1" vertex="1">
          <mxGeometry x="392" y="174.75" width="10" height="375.25" as="geometry" />
        </mxCell>
        <mxCell id="sbfKvWTtOLKOCPMKF29I-41" value="" style="endArrow=none;dashed=1;html=1;rounded=0;" parent="1" edge="1">
          <mxGeometry width="50" height="50" relative="1" as="geometry">
            <mxPoint x="1014.76" y="904" as="sourcePoint" />
            <mxPoint x="1014.76" y="134" as="targetPoint" />
          </mxGeometry>
        </mxCell>
        <mxCell id="sbfKvWTtOLKOCPMKF29I-42" value="" style="endArrow=classic;html=1;rounded=0;" parent="1" edge="1">
          <mxGeometry width="50" height="50" relative="1" as="geometry">
            <mxPoint x="910" y="400" as="sourcePoint" />
            <mxPoint x="1010" y="400" as="targetPoint" />
          </mxGeometry>
        </mxCell>
        <mxCell id="sbfKvWTtOLKOCPMKF29I-45" value="" style="endArrow=none;dashed=1;html=1;rounded=0;" parent="1" target="sbfKvWTtOLKOCPMKF29I-44" edge="1">
          <mxGeometry width="50" height="50" relative="1" as="geometry">
            <mxPoint x="530" y="900" as="sourcePoint" />
            <mxPoint x="530" y="119" as="targetPoint" />
          </mxGeometry>
        </mxCell>
        <mxCell id="sbfKvWTtOLKOCPMKF29I-44" value="" style="rounded=0;whiteSpace=wrap;html=1;" parent="1" vertex="1">
          <mxGeometry x="526" y="238" width="10" height="292" as="geometry" />
        </mxCell>
        <mxCell id="OuCYZ1kZ1UgPZIDO1jOh-18" value="" style="endArrow=classic;html=1;rounded=0;" parent="1" edge="1">
          <mxGeometry width="50" height="50" relative="1" as="geometry">
            <mxPoint x="402" y="249.5" as="sourcePoint" />
            <mxPoint x="530" y="250" as="targetPoint" />
          </mxGeometry>
        </mxCell>
        <mxCell id="sbfKvWTtOLKOCPMKF29I-48" value="" style="endArrow=none;dashed=1;html=1;rounded=0;" parent="1" edge="1">
          <mxGeometry width="50" height="50" relative="1" as="geometry">
            <mxPoint x="619" y="900" as="sourcePoint" />
            <mxPoint x="618" y="320" as="targetPoint" />
          </mxGeometry>
        </mxCell>
        <mxCell id="sbfKvWTtOLKOCPMKF29I-50" value="" style="endArrow=none;dashed=1;html=1;rounded=0;" parent="1" edge="1">
          <mxGeometry width="50" height="50" relative="1" as="geometry">
            <mxPoint x="720" y="910" as="sourcePoint" />
            <mxPoint x="720" y="310" as="targetPoint" />
          </mxGeometry>
        </mxCell>
        <mxCell id="sbfKvWTtOLKOCPMKF29I-54" value="" style="endArrow=none;dashed=1;html=1;rounded=0;" parent="1" edge="1">
          <mxGeometry width="50" height="50" relative="1" as="geometry">
            <mxPoint x="820" y="900" as="sourcePoint" />
            <mxPoint x="820" y="324" as="targetPoint" />
          </mxGeometry>
        </mxCell>
        <mxCell id="sbfKvWTtOLKOCPMKF29I-22" value="" style="endArrow=classic;html=1;rounded=0;" parent="1" edge="1">
          <mxGeometry width="50" height="50" relative="1" as="geometry">
            <mxPoint x="724" y="330" as="sourcePoint" />
            <mxPoint x="814" y="330" as="targetPoint" />
          </mxGeometry>
        </mxCell>
        <mxCell id="PCD-skfdeHrRVYpiaoJP-2" value="&lt;font style=&quot;font-size: 11px;&quot;&gt;bookingConfirmation&lt;/font&gt;" style="rounded=0;whiteSpace=wrap;html=1;" parent="1" vertex="1">
          <mxGeometry x="1055" y="156" width="120" height="24" as="geometry" />
        </mxCell>
        <mxCell id="PCD-skfdeHrRVYpiaoJP-4" value="&lt;font style=&quot;font-size: 11px;&quot;&gt;bookingConfirmationDA&lt;/font&gt;" style="rounded=0;whiteSpace=wrap;html=1;" parent="1" vertex="1">
          <mxGeometry x="1180" y="110" width="120" height="24" as="geometry" />
        </mxCell>
        <mxCell id="PCD-skfdeHrRVYpiaoJP-10" value="" style="rounded=0;whiteSpace=wrap;html=1;" parent="1" vertex="1">
          <mxGeometry x="714" y="298" width="10" height="222" as="geometry" />
        </mxCell>
        <mxCell id="PCD-skfdeHrRVYpiaoJP-14" value="" style="endArrow=none;dashed=1;html=1;rounded=0;" parent="1" target="sbfKvWTtOLKOCPMKF29I-55" edge="1">
          <mxGeometry width="50" height="50" relative="1" as="geometry">
            <mxPoint x="910" y="890" as="sourcePoint" />
            <mxPoint x="934" y="170" as="targetPoint" />
          </mxGeometry>
        </mxCell>
        <mxCell id="sbfKvWTtOLKOCPMKF29I-55" value="" style="rounded=0;whiteSpace=wrap;html=1;" parent="1" vertex="1">
          <mxGeometry x="900" y="369" width="10" height="141" as="geometry" />
        </mxCell>
        <mxCell id="PCD-skfdeHrRVYpiaoJP-15" value="" style="endArrow=none;dashed=1;html=1;rounded=0;entryX=0.5;entryY=1;entryDx=0;entryDy=0;" parent="1" target="PCD-skfdeHrRVYpiaoJP-2" edge="1" source="PCD-skfdeHrRVYpiaoJP-19">
          <mxGeometry width="50" height="50" relative="1" as="geometry">
            <mxPoint x="1115" y="1008" as="sourcePoint" />
            <mxPoint x="1115" y="238" as="targetPoint" />
          </mxGeometry>
        </mxCell>
        <mxCell id="PCD-skfdeHrRVYpiaoJP-16" value="" style="endArrow=none;dashed=1;html=1;rounded=0;" parent="1" edge="1">
          <mxGeometry width="50" height="50" relative="1" as="geometry">
            <mxPoint x="1239.66" y="904" as="sourcePoint" />
            <mxPoint x="1239.66" y="134" as="targetPoint" />
          </mxGeometry>
        </mxCell>
        <mxCell id="PCD-skfdeHrRVYpiaoJP-17" value="" style="endArrow=classic;html=1;rounded=0;" parent="1" edge="1">
          <mxGeometry width="50" height="50" relative="1" as="geometry">
            <mxPoint x="915" y="443" as="sourcePoint" />
            <mxPoint x="1110" y="443" as="targetPoint" />
          </mxGeometry>
        </mxCell>
        <mxCell id="PCD-skfdeHrRVYpiaoJP-20" value="read booking&amp;nbsp;&lt;div&gt;confirmation&amp;nbsp;&lt;div&gt;(status)&lt;/div&gt;&lt;/div&gt;" style="edgeLabel;html=1;align=center;verticalAlign=middle;resizable=0;points=[];" parent="1" vertex="1" connectable="0">
          <mxGeometry x="1182.001167919605" y="431.000195613526" as="geometry">
            <mxPoint x="-1" y="6" as="offset" />
          </mxGeometry>
        </mxCell>
        <mxCell id="PCD-skfdeHrRVYpiaoJP-21" value="" style="endArrow=classic;html=1;rounded=0;" parent="1" edge="1">
          <mxGeometry width="50" height="50" relative="1" as="geometry">
            <mxPoint x="1121.5" y="461" as="sourcePoint" />
            <mxPoint x="1240" y="461" as="targetPoint" />
          </mxGeometry>
        </mxCell>
        <mxCell id="PCD-skfdeHrRVYpiaoJP-22" value="" style="html=1;labelBackgroundColor=#ffffff;startArrow=none;startFill=0;startSize=6;endArrow=classic;endFill=1;endSize=6;jettySize=auto;orthogonalLoop=1;strokeWidth=1;dashed=1;fontSize=14;rounded=0;" parent="1" edge="1">
          <mxGeometry width="60" height="60" relative="1" as="geometry">
            <mxPoint x="1102" y="483" as="sourcePoint" />
            <mxPoint x="914" y="483" as="targetPoint" />
          </mxGeometry>
        </mxCell>
        <mxCell id="PCD-skfdeHrRVYpiaoJP-24" value="" style="html=1;labelBackgroundColor=#ffffff;startArrow=none;startFill=0;startSize=6;endArrow=classic;endFill=1;endSize=6;jettySize=auto;orthogonalLoop=1;strokeWidth=1;dashed=1;fontSize=14;rounded=0;" parent="1" edge="1">
          <mxGeometry width="60" height="60" relative="1" as="geometry">
            <mxPoint x="895.86" y="492" as="sourcePoint" />
            <mxPoint x="732.1358620689655" y="492" as="targetPoint" />
          </mxGeometry>
        </mxCell>
        <mxCell id="PCD-skfdeHrRVYpiaoJP-27" value="" style="html=1;labelBackgroundColor=#ffffff;startArrow=none;startFill=0;startSize=6;endArrow=classic;endFill=1;endSize=6;jettySize=auto;orthogonalLoop=1;strokeWidth=1;dashed=1;fontSize=14;rounded=0;" parent="1" edge="1">
          <mxGeometry width="60" height="60" relative="1" as="geometry">
            <mxPoint x="392" y="530.5" as="sourcePoint" />
            <mxPoint x="242" y="530" as="targetPoint" />
          </mxGeometry>
        </mxCell>
        <mxCell id="1nYJpOSyFcA384nFw_Hg-1" value="&lt;span style=&quot;font-size: 11px;&quot;&gt;view booking confirmation&lt;/span&gt;&lt;div&gt;&lt;span style=&quot;font-size: 11px;&quot;&gt;(confirmationID, date, time, status)&lt;/span&gt;&lt;/div&gt;" style="text;html=1;align=center;verticalAlign=middle;whiteSpace=wrap;rounded=0;" vertex="1" parent="1">
          <mxGeometry x="100" y="156" width="130" height="30" as="geometry" />
        </mxCell>
        <mxCell id="1nYJpOSyFcA384nFw_Hg-2" value="&lt;span style=&quot;font-size: 11px;&quot;&gt;view booking confirmation&lt;/span&gt;&lt;div&gt;&lt;span style=&quot;font-size: 11px;&quot;&gt;(confirmationID, date, time, status)&lt;/span&gt;&lt;/div&gt;" style="text;html=1;align=center;verticalAlign=middle;whiteSpace=wrap;rounded=0;" vertex="1" parent="1">
          <mxGeometry x="254" y="180" width="130" height="30" as="geometry" />
        </mxCell>
        <mxCell id="1nYJpOSyFcA384nFw_Hg-3" value="&lt;span style=&quot;font-size: 11px;&quot;&gt;view booking&amp;nbsp;&lt;/span&gt;&lt;div&gt;&lt;span style=&quot;font-size: 11px;&quot;&gt;confirmation&lt;/span&gt;&lt;div&gt;&lt;span style=&quot;font-size: 11px;&quot;&gt;(confirmationID,&lt;/span&gt;&lt;/div&gt;&lt;div&gt;&lt;span style=&quot;font-size: 11px;&quot;&gt;&amp;nbsp;date, time, status)&lt;/span&gt;&lt;/div&gt;&lt;/div&gt;" style="text;html=1;align=center;verticalAlign=middle;whiteSpace=wrap;rounded=0;" vertex="1" parent="1">
          <mxGeometry x="406" y="200" width="130" height="30" as="geometry" />
        </mxCell>
        <mxCell id="1nYJpOSyFcA384nFw_Hg-5" value="&lt;span style=&quot;font-size: 11px;&quot;&gt;view booking confirmation&lt;/span&gt;&lt;div&gt;&lt;span style=&quot;font-size: 11px;&quot;&gt;(confirmationID, date, time, status)&lt;/span&gt;&lt;/div&gt;" style="text;html=1;align=center;verticalAlign=middle;whiteSpace=wrap;rounded=0;" vertex="1" parent="1">
          <mxGeometry x="535" y="286" width="184" height="30" as="geometry" />
        </mxCell>
        <mxCell id="1nYJpOSyFcA384nFw_Hg-6" value="&lt;span style=&quot;font-size: 11px;&quot;&gt;view booking confirmation&lt;/span&gt;&lt;div&gt;&lt;span style=&quot;font-size: 11px;&quot;&gt;(confirmationID, date, time, status)&lt;/span&gt;&lt;/div&gt;" style="text;html=1;align=center;verticalAlign=middle;whiteSpace=wrap;rounded=0;" vertex="1" parent="1">
          <mxGeometry x="724" y="342" width="184" height="30" as="geometry" />
        </mxCell>
        <mxCell id="1nYJpOSyFcA384nFw_Hg-7" value="" style="endArrow=none;dashed=1;html=1;rounded=0;entryX=0.5;entryY=1;entryDx=0;entryDy=0;" edge="1" parent="1" target="PCD-skfdeHrRVYpiaoJP-19">
          <mxGeometry width="50" height="50" relative="1" as="geometry">
            <mxPoint x="1115" y="1008" as="sourcePoint" />
            <mxPoint x="1115" y="180" as="targetPoint" />
          </mxGeometry>
        </mxCell>
        <mxCell id="PCD-skfdeHrRVYpiaoJP-19" value="" style="rounded=0;whiteSpace=wrap;html=1;" parent="1" vertex="1">
          <mxGeometry x="1110" y="434" width="10" height="56" as="geometry" />
        </mxCell>
        <mxCell id="1nYJpOSyFcA384nFw_Hg-9" value="&lt;span style=&quot;font-size: 11px;&quot;&gt;view booking confirmation&lt;/span&gt;&lt;div&gt;&lt;span style=&quot;font-size: 11px;&quot;&gt;(confirmationID, date, time, status)&lt;/span&gt;&lt;/div&gt;" style="text;html=1;align=center;verticalAlign=middle;whiteSpace=wrap;rounded=0;" vertex="1" parent="1">
          <mxGeometry x="924" y="411" width="184" height="30" as="geometry" />
        </mxCell>
        <mxCell id="1nYJpOSyFcA384nFw_Hg-10" value="&lt;span style=&quot;font-size: 11px;&quot;&gt;display booking confirmation&lt;/span&gt;&lt;div&gt;&lt;span style=&quot;font-size: 11px;&quot;&gt;(confirmationID, date, time, status)&lt;/span&gt;&lt;/div&gt;" style="text;html=1;align=center;verticalAlign=middle;whiteSpace=wrap;rounded=0;" vertex="1" parent="1">
          <mxGeometry x="917" y="450" width="184" height="30" as="geometry" />
        </mxCell>
        <mxCell id="1nYJpOSyFcA384nFw_Hg-11" value="&lt;span style=&quot;font-size: 11px;&quot;&gt;display booking confirmation&lt;/span&gt;&lt;div&gt;&lt;span style=&quot;font-size: 11px;&quot;&gt;(confirmationID, date, time, status)&lt;/span&gt;&lt;/div&gt;" style="text;html=1;align=center;verticalAlign=middle;whiteSpace=wrap;rounded=0;" vertex="1" parent="1">
          <mxGeometry x="724" y="456" width="184" height="30" as="geometry" />
        </mxCell>
        <mxCell id="1nYJpOSyFcA384nFw_Hg-13" value="" style="html=1;labelBackgroundColor=#ffffff;startArrow=none;startFill=0;startSize=6;endArrow=classic;endFill=1;endSize=6;jettySize=auto;orthogonalLoop=1;strokeWidth=1;dashed=1;fontSize=14;rounded=0;" edge="1" parent="1">
          <mxGeometry width="60" height="60" relative="1" as="geometry">
            <mxPoint x="714" y="502" as="sourcePoint" />
            <mxPoint x="540" y="502" as="targetPoint" />
          </mxGeometry>
        </mxCell>
        <mxCell id="1nYJpOSyFcA384nFw_Hg-14" value="&lt;span style=&quot;font-size: 11px;&quot;&gt;display booking confirmation&lt;/span&gt;&lt;div&gt;&lt;span style=&quot;font-size: 11px;&quot;&gt;(confirmationID, date, time, status)&lt;/span&gt;&lt;/div&gt;" style="text;html=1;align=center;verticalAlign=middle;whiteSpace=wrap;rounded=0;" vertex="1" parent="1">
          <mxGeometry x="535" y="470" width="184" height="30" as="geometry" />
        </mxCell>
        <mxCell id="1nYJpOSyFcA384nFw_Hg-16" value="&lt;span style=&quot;font-size: 11px;&quot;&gt;display booking&amp;nbsp;&lt;/span&gt;&lt;div&gt;&lt;span style=&quot;font-size: 11px;&quot;&gt;confirmation&lt;/span&gt;&lt;div&gt;&lt;span style=&quot;font-size: 11px;&quot;&gt;(confirmationID,&lt;/span&gt;&lt;/div&gt;&lt;div&gt;&lt;span style=&quot;font-size: 11px;&quot;&gt;&amp;nbsp;date, time, status)&lt;/span&gt;&lt;/div&gt;&lt;/div&gt;" style="text;html=1;align=center;verticalAlign=middle;whiteSpace=wrap;rounded=0;" vertex="1" parent="1">
          <mxGeometry x="402" y="460" width="130" height="30" as="geometry" />
        </mxCell>
        <mxCell id="1nYJpOSyFcA384nFw_Hg-17" value="" style="html=1;labelBackgroundColor=#ffffff;startArrow=none;startFill=0;startSize=6;endArrow=classic;endFill=1;endSize=6;jettySize=auto;orthogonalLoop=1;strokeWidth=1;dashed=1;fontSize=14;rounded=0;" edge="1" parent="1">
          <mxGeometry width="60" height="60" relative="1" as="geometry">
            <mxPoint x="524" y="515" as="sourcePoint" />
            <mxPoint x="406" y="515" as="targetPoint" />
          </mxGeometry>
        </mxCell>
        <mxCell id="1nYJpOSyFcA384nFw_Hg-18" value="&lt;span style=&quot;font-size: 11px;&quot;&gt;display booking&amp;nbsp;&lt;/span&gt;&lt;div&gt;&lt;span style=&quot;font-size: 11px;&quot;&gt;confirmation&lt;/span&gt;&lt;div&gt;&lt;span style=&quot;font-size: 11px;&quot;&gt;(confirmationID,&lt;/span&gt;&lt;/div&gt;&lt;div&gt;&lt;span style=&quot;font-size: 11px;&quot;&gt;&amp;nbsp;date, time, status)&lt;/span&gt;&lt;/div&gt;&lt;/div&gt;" style="text;html=1;align=center;verticalAlign=middle;whiteSpace=wrap;rounded=0;" vertex="1" parent="1">
          <mxGeometry x="254" y="486" width="130" height="30" as="geometry" />
        </mxCell>
        <mxCell id="1nYJpOSyFcA384nFw_Hg-19" value="read booking&amp;nbsp;&lt;div&gt;confirmation&amp;nbsp;&lt;div&gt;(status)&lt;/div&gt;&lt;/div&gt;" style="edgeLabel;html=1;align=center;verticalAlign=middle;resizable=0;points=[];" vertex="1" connectable="0" parent="1">
          <mxGeometry x="960.001167919605" y="342.000195613526" as="geometry">
            <mxPoint x="6" y="35" as="offset" />
          </mxGeometry>
        </mxCell>
        <mxCell id="1nYJpOSyFcA384nFw_Hg-20" value="read booking&amp;nbsp;&lt;div&gt;confirmation&amp;nbsp;&lt;div&gt;(status)&lt;/div&gt;&lt;/div&gt;" style="edgeLabel;html=1;align=center;verticalAlign=middle;resizable=0;points=[];" vertex="1" connectable="0" parent="1">
          <mxGeometry x="770.001167919605" y="298.000195613526" as="geometry">
            <mxPoint x="-1" y="6" as="offset" />
          </mxGeometry>
        </mxCell>
        <mxCell id="1nYJpOSyFcA384nFw_Hg-21" value="read booking&amp;nbsp;&lt;div&gt;confirmation&amp;nbsp;&lt;div&gt;(status)&lt;/div&gt;&lt;/div&gt;" style="edgeLabel;html=1;align=center;verticalAlign=middle;resizable=0;points=[];" vertex="1" connectable="0" parent="1">
          <mxGeometry x="578.001167919605" y="238.000195613526" as="geometry">
            <mxPoint x="-1" y="6" as="offset" />
          </mxGeometry>
        </mxCell>
        <mxCell id="1nYJpOSyFcA384nFw_Hg-22" value="&lt;b&gt;(Customer) Booking Confirmation&lt;/b&gt;" style="text;html=1;align=center;verticalAlign=middle;whiteSpace=wrap;rounded=0;fontSize=16;" vertex="1" parent="1">
          <mxGeometry width="270" height="30" as="geometry" />
        </mxCell>
      </root>
    </mxGraphModel>
  </diagram>
</mxfile>
